<svg id="Gold_Chop_SVG" data-name="Gold Chop SVG" xmlns="http://www.w3.org/2000/svg" width="32.201" height="33.629" viewBox="0 0 32.201 33.629">
  <g id="Gold_Chop" data-name="Gold Chop" transform="translate(16.1 16.814)">
    <g id="Group_43" data-name="Group 43" transform="translate(-16.1 -16.814)">
      <path id="Path_15" data-name="Path 15" d="M3.531,0H28.8a.206.206,0,0,0,.051.024c.227.035.457.052.679.1A3.144,3.144,0,0,1,31.046.96a3.541,3.541,0,0,1,.817,1.276,4.445,4.445,0,0,1,.313,1.595q0,13.009,0,26.018a4.577,4.577,0,0,1-.128,1.113,3.223,3.223,0,0,1-.835,1.52,3.566,3.566,0,0,1-1.265.81,4.275,4.275,0,0,1-1.556.316l-24.625,0a4.714,4.714,0,0,1-1.113-.127,3.2,3.2,0,0,1-1.53-.84A3.3,3.3,0,0,1,.368,31.5a9.271,9.271,0,0,1-.291-1.008C.04,30.356.025,30.215,0,30.076V3.381A.2.2,0,0,0,.024,3.33c.035-.226.052-.456.1-.679A3.168,3.168,0,0,1,.923,1.167,3.237,3.237,0,0,1,2.1.374a9.935,9.935,0,0,1,1.017-.3C3.251.04,3.392.025,3.531,0Zm7.006,6.014a.259.259,0,0,0-.047-.041c-.179-.121-.361-.24-.539-.362-.039-.027-.064-.077-.105-.1a2.849,2.849,0,0,1-.453-.2,2.326,2.326,0,0,0-.51-.222C8.653,5,8.4,4.967,8.169,4.88A1.521,1.521,0,0,0,7.6,4.808c-.02,0-.052,0-.06-.009-.071-.1-.173-.063-.265-.065-.133,0-.267,0-.4,0-.029,0-.073-.007-.084.009-.076.1-.183.058-.278.066a3.544,3.544,0,0,0-.418.034c-.159.033-.311.1-.467.14-.138.04-.28.065-.415.111s-.254.108-.381.164c-.054.024-.106.055-.162.075a3.176,3.176,0,0,0-.336.114.861.861,0,0,1-.495.165c-.014,0-.029.014-.044.018a.884.884,0,0,1-.181.053,1.483,1.483,0,0,0-.659.1.525.525,0,0,0-.125.8.953.953,0,0,0,.343.207c.16.054.319.116.481.172.22.077.45.1.671.164.07.02.172-.011.216.029.086.08.177.055.268.061s.185-.026.231.015c.088.077.177.056.269.06a1.233,1.233,0,0,1,.224.006c.237.059.5-.045.721.094.5,0,1.011.017,1.515,0a6.483,6.483,0,0,0,1.5-.061,2.948,2.948,0,0,1,.694-.033.156.156,0,0,1,.1.025c.117.114.234.23.34.354.076.088.133.191.2.284.089.119.185.233.275.352.157.21.312.423.463.629-.156.167-.294.3-.415.446-.2.236-.381.481-.57.722l-.029.04c-.132.187-.261.376-.4.559a3.523,3.523,0,0,0-.319.41c-.084.159-.2.3-.287.454-.1.184-.248.344-.349.536a6.009,6.009,0,0,1-.423.675,7.631,7.631,0,0,0-.449.724c-.094.169-.222.32-.323.485s-.171.314-.258.47c-.063.113-.135.221-.2.334s-.117.236-.178.352c-.02.039-.055.072-.074.112-.069.152-.13.307-.2.458s-.15.291-.227.435c-.031.057-.07.109-.1.168-.071.151-.139.3-.206.456-.051.116-.1.234-.147.352s-.1.249-.153.375q-.064.161-.122.324c-.031.086-.056.173-.088.259-.078.207-.171.41-.234.622-.039.133-.14.252-.106.405,0,.009-.012.02-.017.032-.052.142-.106.285-.156.428-.036.105-.064.213-.1.318a2.4,2.4,0,0,0-.144.387,1.679,1.679,0,0,0-.108.556c0,.014-.022.031-.036.05-.013-.279-.03-.548-.035-.818-.006-.288,0-.576,0-.864a.54.54,0,0,0-.02-.119.984.984,0,0,1-.052-.209q0-2.536,0-5.071a.9.9,0,0,1,.068-.54c.085-.132.022-.3.089-.46a1.642,1.642,0,0,0,.149-.338c.017-.094.093-.177.115-.272a1.245,1.245,0,0,0-.129-.893c-.121-.227-.255-.374-.536-.352a.474.474,0,0,0-.477.356c-.04.183-.194.308-.2.514,0,.149-.125.292-.152.445-.034.194-.023.39-.069.59a3.811,3.811,0,0,0-.037.831q-.005,1.033,0,2.066c0,.766.016,1.533.025,2.3a.37.37,0,0,0,.018.095.8.8,0,0,1,.054.192c0,.826,0,1.653,0,2.479a.562.562,0,0,0,.017.132.885.885,0,0,1,.055.192q0,2.873,0,5.747c0,.029.01.063,0,.087-.023.045-.05.11-.088.122-.154.046-.314.074-.472.111a.411.411,0,0,0-.088.035c-.2.1-.236.309-.292.483a.6.6,0,0,0,.17.571.312.312,0,0,0,.138.061c.046.015.1.02.143.031a1.294,1.294,0,0,0,.28.066.2.2,0,0,1,.216.18.823.823,0,0,0,.124.308.617.617,0,0,0,.623.319.678.678,0,0,1,.113,0A.323.323,0,0,0,5.01,29c.007-.022.03-.039.04-.061a.737.737,0,0,0,.056-.154.94.94,0,0,0,0-.166c.181,0,.348,0,.515,0a.249.249,0,0,1,.069.02.982.982,0,0,0,.169.052c.074.009.15,0,.225,0a.765.765,0,0,1,.328.036.8.8,0,0,0,.4.063c.041,0,.1-.009.12.013.07.082.158.054.242.063.21.023.42.057.631.073s.447.018.67.027c.037,0,.092-.009.108.011.072.089.166.061.254.063.142,0,.284,0,.426,0l1.648.025a.407.407,0,0,1,.074.006,1.655,1.655,0,0,0,.317.066q3.574.006,7.148,0a.587.587,0,0,1,.142.024.724.724,0,0,0,.158.048c.734,0,1.469,0,2.2,0a.659.659,0,0,1,.124.009,3.207,3.207,0,0,1,.7.084c.139.058.321-.046.461.08.012.011.041,0,.061,0l.732.1a.1.1,0,0,1,.024.008l.42.166a2.771,2.771,0,0,1,.438.181,3.233,3.233,0,0,1,.588.431,1.037,1.037,0,0,0,.878.336.671.671,0,0,0,.275-.1.507.507,0,0,0,.2-.352,4.772,4.772,0,0,0,.032-.594.754.754,0,0,1,.021-.131,1.1,1.1,0,0,0,.051-.211c.005-.371,0-.743,0-1.114a.641.641,0,0,1,.047-.158.4.4,0,0,0,.025-.1q0-.657,0-1.315a.412.412,0,0,0-.023-.105.779.779,0,0,1-.05-.17c-.038-1.049.053-2.1-.067-3.149a13.947,13.947,0,0,1-.01-1.574c.195-.158.414-.095.623-.107a.4.4,0,0,0,.109-.016,1.836,1.836,0,0,1,.724-.084.7.7,0,0,0,.088,0c.02,0,.049,0,.058-.014.061-.084.15-.048.229-.063a2.552,2.552,0,0,0,.264-.075.357.357,0,0,1,.068-.022.754.754,0,0,0,.317-.064,4.4,4.4,0,0,1,.608-.2.747.747,0,0,0,.386-.21.251.251,0,0,1,.057-.046,2,2,0,0,0,.225-.153c.141-.127.278-.261.41-.4a2.016,2.016,0,0,0,.286-.331c.088-.144.128-.316.213-.461.12-.205.05-.419.06-.629,0-.009-.019-.017-.024-.028-.024-.062-.073-.129-.063-.186.035-.2-.073-.382-.086-.576,0-.023-.037-.043-.053-.066a.227.227,0,0,1-.04-.073,1.3,1.3,0,0,0-.166-.492c-.141-.2-.256-.425-.394-.632a3.688,3.688,0,0,0-.288-.365c-.235-.274-.469-.549-.715-.813a4.2,4.2,0,0,0-.553-.53,3.631,3.631,0,0,0-.863-.548,4.328,4.328,0,0,1-.493-.281c-.069-.038-.154-.046-.225-.081-.1-.047-.185-.108-.271-.159.026-.181.153-.333.112-.522a.041.041,0,0,1,.009-.035c.089-.063.051-.157.066-.239a2.1,2.1,0,0,0-.079-.588.057.057,0,0,0-.016-.032c-.13-.136-.252-.283-.473-.249-.061.009-.127-.009-.187,0a.945.945,0,0,0-.212.076.48.48,0,0,0-.216.279c-.055.123-.155.224-.149.373,0,.027-.032.054-.045.083a1,1,0,0,0-.051.131.958.958,0,0,1-.017.108,2.693,2.693,0,0,0-.149.337,1.056,1.056,0,0,1-.263.455.466.466,0,0,0-.071.085c-.064.115-.125.231-.185.348a.21.21,0,0,0-.017.07.6.6,0,0,0,.2.554.373.373,0,0,1,.072.17c.036.124-.061.224-.071.337-.02.231-.02.464-.029.7a.506.506,0,0,1-.018.107.845.845,0,0,0-.054.192c0,.58,0,1.16,0,1.74a.522.522,0,0,1-.025.129.691.691,0,0,0-.047.158c0,.421,0,.843,0,1.264v.288c-.113,0-.241.039-.305-.009-.116-.084-.23-.047-.344-.061a.951.951,0,0,1-.132-.02c-.088-.024-.173-.062-.262-.078-.17-.032-.341-.054-.512-.08a.054.054,0,0,1-.022-.011,1.5,1.5,0,0,0-.547-.158c-.08-.021-.129-.038-.13-.129-.007-.428-.02-.856-.023-1.285,0-.643,0-1.285,0-1.928a.6.6,0,0,0-.048-.158.5.5,0,0,1-.025-.092,3.646,3.646,0,0,0-.069-1.028,1.443,1.443,0,0,1-.032-.43c0-.025.006-.061-.007-.073-.106-.089-.058-.208-.068-.315,0-.037.011-.087-.008-.11-.139-.168-.059-.391-.158-.576a1.635,1.635,0,0,1-.1-.492,1.2,1.2,0,0,0-.02-.159c-.051-.162-.112-.321-.163-.483-.015-.046,0-.1-.014-.148-.043-.135-.1-.266-.141-.4s-.056-.268-.108-.392a1.319,1.319,0,0,1-.17-.495c0-.011-.011-.021-.017-.031a2.374,2.374,0,0,1-.149-.261c-.09-.214-.169-.433-.258-.664a2.141,2.141,0,0,0,.321.1,1.328,1.328,0,0,1,.453.07c.145.074.328.023.5.1.134.06.3.017.461.077.22.083.468.026.708.1.28.083.592-.044.887.081a1.1,1.1,0,0,0,.418.031c.553,0,1.107-.015,1.66-.025a.253.253,0,0,0,.067-.024.455.455,0,0,1,.157-.047,2.6,2.6,0,0,0,.821-.1c.044-.01.092,0,.134-.018.131-.043.262-.086.388-.139a3.475,3.475,0,0,0,.43-.206,2.016,2.016,0,0,0,.312-.245,3.374,3.374,0,0,0,.4-.394c.092-.117.122-.285.217-.4a1.326,1.326,0,0,0,.222-.513,1.836,1.836,0,0,0,.02-.6,2.133,2.133,0,0,0-.081-.323c-.037-.172-.06-.348-.105-.518a1.309,1.309,0,0,0-.129-.254q-.057-.107-.116-.212c-.1-.19-.2-.386-.318-.566a2.862,2.862,0,0,0-.346-.421c-.112-.114-.264-.191-.366-.312a2.731,2.731,0,0,0-.513-.418c-.038-.028-.064-.075-.1-.1-.123-.067-.254-.117-.373-.19A2.49,2.49,0,0,0,26,4.279a1.374,1.374,0,0,1-.28-.1,1.188,1.188,0,0,0-.512-.15.345.345,0,0,1-.072-.014,2.085,2.085,0,0,0-.39-.081c-.513-.01-1.026,0-1.54,0a.877.877,0,0,0-.132.021l-.492.079a.875.875,0,0,0-.105.024c-.053.015-.1.035-.157.051s-.132.034-.2.053c-.046.014-.092.03-.137.048l-.36.147c-.026.011-.052.019-.078.028-.1.032-.2.058-.293.1-.11.045-.214.1-.324.152s-.2.076-.3.117c-.069.029-.169.049-.2.1-.071.147-.232.136-.335.227-.132.115-.315.174-.438.3a5.988,5.988,0,0,1-.636.471c-.016.012-.053,0-.078,0-.069-.017-.136-.038-.2-.057s-.117-.029-.175-.046a1.612,1.612,0,0,0-.168-.053c-.076-.013-.155-.01-.231-.023s-.12-.038-.181-.053a1.371,1.371,0,0,1-.146-.02,1.1,1.1,0,0,0-.511-.082c-.016,0-.041,0-.048-.007-.074-.1-.181-.06-.277-.067a.662.662,0,0,1-.209-.016,1.687,1.687,0,0,0-.711-.084.466.466,0,0,1-.063,0,.39.39,0,0,1-.057-.018.8.8,0,0,0-.18-.054c-.133-.008-.267,0-.4,0a.176.176,0,0,0-.085.01c-.1.064-.2.135-.305.2a.237.237,0,0,1-.1.039,2.353,2.353,0,0,0-.732.07c-.26.107-.552,0-.835.092-.217.074-.475.012-.714.083a2.257,2.257,0,0,1-.481.033.543.543,0,0,0-.115.031.616.616,0,0,1-.135.041,1.992,1.992,0,0,0-.608.068,1.968,1.968,0,0,1-.491.035A2.294,2.294,0,0,0,10.537,6.014Z" fill="#d7b285"/>
      <path id="Path_16" data-name="Path 16" d="M0,30.076c.025.139.04.28.077.415A9.271,9.271,0,0,0,.368,31.5a3.3,3.3,0,0,0,.756,1.142,3.2,3.2,0,0,0,1.53.84,4.714,4.714,0,0,0,1.113.127l24.625,0a4.275,4.275,0,0,0,1.556-.316,3.566,3.566,0,0,0,1.265-.81,3.223,3.223,0,0,0,.835-1.52,4.577,4.577,0,0,0,.128-1.113q0-13.009,0-26.018a4.445,4.445,0,0,0-.313-1.595A3.541,3.541,0,0,0,31.046.96,3.144,3.144,0,0,0,29.525.128c-.222-.052-.452-.07-.679-.1A.206.206,0,0,1,28.8,0h3.4q0,16.813,0,33.629H0Z" fill="#fff"/>
      <path id="Path_17" data-name="Path 17" d="M3.531,0c-.138.025-.28.04-.415.077A9.935,9.935,0,0,0,2.1.374a3.237,3.237,0,0,0-1.176.792A3.168,3.168,0,0,0,.129,2.651c-.053.222-.07.452-.1.679A.2.2,0,0,1,0,3.381V0Z" fill="#fff"/>
      <path id="Path_18" data-name="Path 18" d="M20.4,20.37a2.294,2.294,0,0,1,.254-.052,1.968,1.968,0,0,0,.491-.035,1.992,1.992,0,0,1,.608-.068.616.616,0,0,0,.135-.041A.543.543,0,0,1,22,20.141a2.257,2.257,0,0,0,.481-.033c.239-.072.5-.009.714-.083.283-.1.574.014.835-.092a2.353,2.353,0,0,1,.732-.07.237.237,0,0,0,.1-.039c.1-.065.2-.136.305-.2a.176.176,0,0,1,.085-.01c.133,0,.267-.006.4,0a.8.8,0,0,1,.18.054.39.39,0,0,0,.057.018.466.466,0,0,0,.063,0,1.687,1.687,0,0,1,.711.084.662.662,0,0,0,.209.016c.1.007.2-.034.277.067.007.009.032.009.048.007a1.1,1.1,0,0,1,.511.082,1.371,1.371,0,0,0,.146.02c.061.014.119.042.181.053s.155.01.231.023a1.612,1.612,0,0,1,.168.053c.058.017.117.03.175.046s.136.04.2.057c.025.006.062.015.078,0a5.988,5.988,0,0,0,.636-.471c.122-.122.306-.181.438-.3.1-.09.264-.08.335-.227.026-.054.126-.074.2-.1.1-.042.2-.075.3-.117s.214-.107.324-.152c.095-.039.2-.065.293-.1.026-.009.053-.017.078-.028l.36-.147c.045-.018.091-.034.137-.048.066-.019.132-.034.2-.053s.1-.035.157-.051a.875.875,0,0,1,.105-.024l.492-.079a.877.877,0,0,1,.132-.021c.513,0,1.027-.007,1.54,0a2.085,2.085,0,0,1,.39.081.345.345,0,0,0,.072.014,1.188,1.188,0,0,1,.512.15,1.374,1.374,0,0,0,.28.1,2.49,2.49,0,0,1,.752.344c.119.073.251.123.373.19.04.022.066.069.1.1a2.731,2.731,0,0,1,.513.418c.1.12.255.2.366.312a2.862,2.862,0,0,1,.346.421c.119.18.213.377.318.566q.058.106.116.212a1.309,1.309,0,0,1,.129.254c.046.17.068.346.105.518a2.133,2.133,0,0,1,.081.323,1.836,1.836,0,0,1-.02.6,1.326,1.326,0,0,1-.222.513c-.1.113-.125.28-.217.4a3.374,3.374,0,0,1-.4.394,2.016,2.016,0,0,1-.312.245,3.475,3.475,0,0,1-.43.206c-.127.053-.258.1-.388.139-.042.014-.09.008-.134.018a2.6,2.6,0,0,1-.821.1.455.455,0,0,0-.157.047.253.253,0,0,1-.067.024c-.553.01-1.107.02-1.66.024a1.1,1.1,0,0,1-.418-.031c-.3-.124-.608,0-.887-.081-.24-.071-.488-.015-.708-.1-.159-.06-.327-.017-.461-.077-.167-.075-.35-.023-.5-.1a1.328,1.328,0,0,0-.453-.07,2.141,2.141,0,0,1-.321-.1c.089.231.168.45.258.664a2.374,2.374,0,0,0,.149.261c.006.011.017.021.017.031a1.319,1.319,0,0,0,.17.495c.052.123.068.262.108.392s.1.266.141.4c.015.046,0,.1.014.148.051.162.112.321.163.483a1.2,1.2,0,0,1,.02.159,1.635,1.635,0,0,0,.1.492c.1.186.02.409.158.576.019.023,0,.073.008.11.01.107-.038.226.068.315.013.011.005.048.007.073a1.443,1.443,0,0,0,.032.43,3.646,3.646,0,0,1,.069,1.028.5.5,0,0,0,.025.092.6.6,0,0,1,.048.158c0,.643,0,1.285,0,1.928,0,.428.017.856.023,1.285,0,.091.05.108.13.129a1.5,1.5,0,0,1,.547.158.054.054,0,0,0,.022.011c.171.026.342.048.512.08.089.017.174.054.262.078a.951.951,0,0,0,.132.02c.114.014.228-.023.344.061.065.047.192.009.305.009v-.288c0-.421,0-.843,0-1.264a.691.691,0,0,1,.047-.158.522.522,0,0,0,.025-.129c0-.58,0-1.16,0-1.74a.845.845,0,0,1,.054-.192.506.506,0,0,0,.018-.107c.009-.232.009-.464.029-.7.01-.113.107-.213.071-.337a.373.373,0,0,0-.072-.17.6.6,0,0,1-.2-.554.21.21,0,0,1,.017-.07c.06-.117.121-.233.185-.348a.466.466,0,0,1,.071-.085,1.057,1.057,0,0,0,.263-.455,2.693,2.693,0,0,1,.149-.337A.959.959,0,0,0,35,27.47a.994.994,0,0,1,.051-.131c.013-.029.046-.056.045-.083-.006-.149.094-.25.149-.373a.48.48,0,0,1,.216-.279.945.945,0,0,1,.212-.076c.06-.012.126.006.187,0,.221-.035.343.113.473.249a.057.057,0,0,1,.016.032,2.1,2.1,0,0,1,.079.588c-.016.082.023.177-.066.239a.041.041,0,0,0-.009.035c.041.19-.086.342-.112.522.087.052.176.112.271.159.071.035.156.044.225.081a4.328,4.328,0,0,0,.493.281,3.631,3.631,0,0,1,.863.548,4.2,4.2,0,0,1,.553.53c.246.264.48.539.715.813a3.688,3.688,0,0,1,.288.365c.137.207.252.429.394.632a1.3,1.3,0,0,1,.166.492.227.227,0,0,0,.04.073c.016.023.051.043.053.066.012.194.121.372.086.576-.01.057.04.124.063.186,0,.011.024.019.024.028-.01.21.06.424-.06.629-.085.146-.126.317-.213.461a2.016,2.016,0,0,1-.286.331c-.132.137-.269.27-.41.4a2,2,0,0,1-.225.153.251.251,0,0,0-.057.046.747.747,0,0,1-.386.21,4.4,4.4,0,0,0-.608.2.754.754,0,0,1-.317.064.357.357,0,0,0-.068.022,2.553,2.553,0,0,1-.264.075c-.078.014-.168-.021-.229.063-.009.012-.038.012-.058.014a.7.7,0,0,1-.088,0,1.836,1.836,0,0,0-.724.084.4.4,0,0,1-.109.016c-.208.012-.428-.051-.623.107a13.947,13.947,0,0,0,.01,1.574c.119,1.05.029,2.1.067,3.149a.779.779,0,0,0,.05.17.412.412,0,0,1,.023.105q0,.657,0,1.315a.4.4,0,0,1-.025.1.641.641,0,0,0-.047.158c0,.371,0,.743,0,1.114a1.1,1.1,0,0,1-.051.211.754.754,0,0,0-.021.131,4.773,4.773,0,0,1-.032.594.507.507,0,0,1-.2.352.671.671,0,0,1-.275.1,1.037,1.037,0,0,1-.878-.336,3.233,3.233,0,0,0-.588-.431,2.771,2.771,0,0,0-.438-.181l-.42-.166a.1.1,0,0,0-.024-.008l-.732-.1c-.02,0-.05.008-.061,0-.139-.126-.322-.021-.461-.08a3.207,3.207,0,0,0-.7-.084.659.659,0,0,0-.124-.009c-.735,0-1.469,0-2.2,0a.724.724,0,0,1-.158-.048.587.587,0,0,0-.142-.024q-3.574,0-7.148,0a1.655,1.655,0,0,1-.317-.066.406.406,0,0,0-.074-.006L19.121,43.4c-.142,0-.284,0-.426,0-.088,0-.182.026-.254-.063-.016-.02-.071-.01-.108-.011-.224-.009-.447-.01-.67-.027s-.421-.05-.631-.073c-.084-.009-.173.019-.242-.063-.019-.022-.079-.01-.12-.013a.8.8,0,0,1-.4-.063.765.765,0,0,0-.328-.036c-.075,0-.151.006-.225,0A.981.981,0,0,1,15.553,43a.249.249,0,0,0-.069-.02c-.167,0-.334,0-.515,0a.94.94,0,0,1,0,.166.737.737,0,0,1-.056.154c-.009.022-.033.039-.04.061a.323.323,0,0,1-.315.245.678.678,0,0,0-.113,0,.617.617,0,0,1-.623-.319.823.823,0,0,1-.124-.308.2.2,0,0,0-.216-.18,1.293,1.293,0,0,1-.28-.066c-.047-.011-.1-.016-.143-.031a.312.312,0,0,1-.138-.061.6.6,0,0,1-.17-.571c.057-.175.093-.385.292-.483a.411.411,0,0,1,.088-.035c.157-.037.317-.065.472-.111.039-.012.066-.077.088-.122.012-.023,0-.057,0-.087q0-2.873,0-5.747a.885.885,0,0,0-.055-.192.562.562,0,0,1-.017-.132c0-.826,0-1.653,0-2.479a.8.8,0,0,0-.054-.192.371.371,0,0,1-.018-.095c-.009-.766-.02-1.533-.025-2.3q-.006-1.033,0-2.066a3.811,3.811,0,0,1,.037-.831c.046-.2.035-.4.069-.59.027-.153.149-.3.152-.445,0-.206.159-.331.2-.514a.474.474,0,0,1,.477-.356c.281-.022.415.126.536.352a1.245,1.245,0,0,1,.129.893c-.021.095-.1.178-.115.272a1.642,1.642,0,0,1-.149.338c-.067.157,0,.329-.089.46a.9.9,0,0,0-.068.54q-.007,2.536,0,5.071a.984.984,0,0,0,.052.209.54.54,0,0,1,.02.119c0,.288,0,.576,0,.864.006.269.023.539.035.818.014-.019.038-.036.036-.05a1.679,1.679,0,0,1,.108-.556,2.4,2.4,0,0,1,.144-.387c.037-.1.065-.213.1-.318.05-.143.1-.285.156-.428,0-.011.018-.023.017-.032-.034-.153.067-.273.106-.405.063-.212.156-.414.234-.622.032-.085.057-.173.088-.259q.059-.163.122-.324c.05-.126.1-.25.153-.375s.1-.236.147-.352c.067-.153.135-.305.206-.456.028-.058.067-.111.1-.168.077-.144.156-.288.227-.435s.133-.306.2-.458c.018-.04.053-.072.074-.112.061-.117.115-.237.178-.352s.134-.221.2-.334c.088-.156.165-.318.258-.47s.229-.316.323-.485a7.631,7.631,0,0,1,.449-.724,6.009,6.009,0,0,0,.423-.675c.1-.192.249-.353.349-.536.086-.159.2-.295.287-.454a3.523,3.523,0,0,1,.319-.41c.136-.184.265-.373.4-.559l.029-.04c.189-.241.374-.486.57-.722.121-.147.259-.28.415-.446-.152-.206-.306-.418-.463-.629-.089-.119-.185-.233-.275-.352-.07-.093-.127-.2-.2-.284-.107-.124-.223-.24-.34-.354a.156.156,0,0,0-.1-.025,2.948,2.948,0,0,0-.694.033,6.483,6.483,0,0,1-1.5.061c-.5.022-1.01,0-1.515,0-.226-.139-.484-.035-.721-.094a1.233,1.233,0,0,0-.224-.006c-.092,0-.181.016-.269-.06-.046-.04-.152-.01-.231-.015s-.182.019-.268-.061c-.043-.04-.146-.009-.216-.029-.221-.064-.452-.088-.671-.164-.161-.056-.32-.119-.481-.172a.953.953,0,0,1-.343-.207.525.525,0,0,1,.125-.8,1.483,1.483,0,0,1,.659-.1.884.884,0,0,0,.181-.053c.015,0,.03-.02.044-.018A.861.861,0,0,0,14.2,19.8a3.176,3.176,0,0,1,.336-.114c.056-.02.108-.051.162-.075.126-.056.25-.119.381-.164s.278-.072.415-.111c.156-.045.309-.108.467-.14a3.544,3.544,0,0,1,.418-.034c.095-.008.2.034.278-.066.012-.015.055-.009.084-.009.133,0,.267,0,.4,0,.092,0,.194-.032.265.065.008.011.039.009.06.009a1.521,1.521,0,0,1,.564.073c.231.087.484.119.713.211a2.326,2.326,0,0,1,.51.222,2.849,2.849,0,0,0,.453.2c.041.019.066.069.105.1.179.122.36.241.539.362A.259.259,0,0,1,20.4,20.37Zm4.478,13.162-.049.008c-.023.062-.04.126-.069.185-.08.168-.167.334-.248.5-.049.1-.095.208-.138.314-.018.044-.025.094-.039.14a.691.691,0,0,1-.04.111c-.043.085-.09.167-.133.252a1.564,1.564,0,0,0-.076.174c-.041.116-.076.234-.118.35a1.518,1.518,0,0,1-.091.193c-.079.147-.159.293-.242.437-.063.11-.131.218-.2.327-.018.031-.038.06-.054.092-.075.153-.147.308-.224.46-.038.075-.086.144-.125.218-.056.106-.1.217-.162.319-.094.159-.2.313-.3.468-.068.106-.139.209-.209.314-.007.01-.019.017-.025.028-.13.213-.25.433-.393.637-.132.189-.289.361-.435.54a5.3,5.3,0,0,1-.351.421,4.3,4.3,0,0,1-.679.615c-.193.124-.356.294-.542.432-.165.123-.34.234-.516.342a2.269,2.269,0,0,1-.332.161c-.092.037-.192.052-.285.086a2.894,2.894,0,0,1-.419.161,4.337,4.337,0,0,1-.705.077,3.662,3.662,0,0,1-.509-.056A.978.978,0,0,1,17,41.825c-.139-.042-.276-.09-.412-.142-.074-.029-.142-.071-.214-.106-.092-.045-.211-.066-.273-.138-.155-.181-.4-.263-.519-.48-.052-.091-.149-.156-.208-.245a4.047,4.047,0,0,1-.23-.4,4.488,4.488,0,0,1-.2-.445c-.048-.126-.074-.26-.112-.391,0-.008-.02-.012-.039-.023,0,.122,0,.239,0,.355a.3.3,0,0,0,.027.078.521.521,0,0,1,.045.146q0,.745,0,1.49a.122.122,0,0,0,.081.129.709.709,0,0,0,.381.074.3.3,0,0,1,.095.017,1.265,1.265,0,0,0,.193.055c.107.011.238-.029.319.019a.7.7,0,0,0,.376.083c.083,0,.194-.029.244.013.1.083.2.053.306.062a1.614,1.614,0,0,1,.545.066,5.614,5.614,0,0,0,.72.1c.323.087.673-.042,1.013.079a1.788,1.788,0,0,0,.58.034l6.886,0a.617.617,0,0,1,.152.031.6.6,0,0,0,.135.041c.826,0,1.653-.009,2.479,0a16.473,16.473,0,0,1,2.458.069,5.059,5.059,0,0,0,.558.029.293.293,0,0,1,.068.021.936.936,0,0,0,.169.051c.135.015.274.007.405.034.159.033.311.1.467.141s.3.058.437.11c.181.066.353.156.536.239,0-.03,0-.054,0-.078q0-3.23,0-6.461c0-.029.007-.072-.009-.084-.1-.077-.061-.182-.065-.278s0-.215,0-.321c-.06-.011-.108-.016-.155-.028-.112-.027-.222-.066-.335-.083-.224-.034-.45-.054-.674-.085a.443.443,0,0,1-.118-.06c-.025-.012-.053-.035-.076-.031-.195.035-.36-.085-.544-.1-.025,0-.056,0-.072-.014-.143-.121-.346-.021-.49-.136-.005,0-.021.006-.03.008-.009.095-.016.185-.027.275a2.293,2.293,0,0,1-.075.652c-.06.142,0,.311-.069.477a3.469,3.469,0,0,0-.1.543c-.035.144-.065.3-.1.444-.017.076,0,.159-.022.233-.045.159-.106.314-.156.472-.015.046-.009.1-.024.145-.043.135-.1.267-.138.4s-.071.262-.107.393c0,.007-.011.012-.016.019a.682.682,0,0,0-.156.4c0,.021-.019.043-.03.064-.081.154-.167.306-.242.463-.058.121-.088.256-.155.37-.133.227-.273.45-.427.662a4.7,4.7,0,0,1-.339.37,1.09,1.09,0,0,1-.136.164c-.106.078-.23.131-.336.21a.865.865,0,0,1-.413.135.952.952,0,0,1-.454-.048,1.271,1.271,0,0,1-.477-.261c-.017-.016-.046-.018-.063-.033a2.431,2.431,0,0,1-.18-.168,1.41,1.41,0,0,1-.08-.122c-.1-.134-.208-.261-.3-.4a2.114,2.114,0,0,1-.352-.668.505.505,0,0,0-.1-.2c-.1-.121-.082-.28-.148-.411-.025-.05-.042-.1-.063-.155a.7.7,0,0,1-.038-.1c-.028-.129-.053-.258-.081-.386,0-.014-.022-.025-.029-.039a.987.987,0,0,1-.064-.155c-.038-.147-.066-.3-.1-.443-.018-.07-.055-.134-.072-.2-.033-.14-.055-.282-.087-.422-.007-.03-.037-.054-.054-.082a.249.249,0,0,1-.035-.075c-.028-.15-.052-.3-.079-.449a.062.062,0,0,0-.017-.032.4.4,0,0,1-.081-.323.266.266,0,0,0-.015-.071c-.019-.068-.038-.136-.06-.2s-.04-.113-.061-.168a.59.59,0,0,1-.038-.087c-.032-.156-.061-.314-.093-.47a.831.831,0,0,0-.038-.089,1.211,1.211,0,0,1-.045-.151c-.029-.149-.054-.3-.083-.449,0-.019-.021-.035-.028-.055-.023-.067-.047-.133-.064-.2-.011-.043-.009-.089-.02-.132s-.037-.112-.056-.167-.031-.091-.046-.138c-.019-.061-.038-.123-.054-.184-.034-.127-.066-.254-.1-.381,0-.015-.02-.027-.026-.042-.018-.044-.032-.088-.05-.132C24.966,33.755,24.921,33.643,24.876,33.531Zm-.517-1.367c.137-.009.292-.026.447-.026a.875.875,0,0,1,.351.043,1.562,1.562,0,0,1,.536.427,3.628,3.628,0,0,1,.3.377c.059.092.075.211.126.309a.844.844,0,0,1,.148.4c0,.025.026.048.038.074a.882.882,0,0,1,.059.145c.032.132.057.265.086.4a.076.076,0,0,0,.023.043c.079.059.07.143.069.226a.286.286,0,0,0,.006.1c.054.149.123.293.164.445s.049.308.081.461.072.287.109.43c0,0,.007.005.008.009a.8.8,0,0,1,.054.167c.011.108-.028.228.089.306a.055.055,0,0,1,.013.045c-.037.187.083.343.1.519a1.928,1.928,0,0,0,.073.213c.034.148.057.3.09.447a.533.533,0,0,0,.054.107.333.333,0,0,1,.031.077c.031.149.06.3.092.446.006.031.028.058.037.089.018.058.031.117.047.175.034.123.064.247.1.367s.1.265.145.4.074.26.112.39c0,.007.013.011.017.018a3.135,3.135,0,0,1,.217.438,1.768,1.768,0,0,0,.322.549.2.2,0,0,0,.288.035c.19-.136.265-.362.417-.529a.69.69,0,0,0,.1-.187c.067-.149.127-.3.195-.449.049-.109.107-.214.156-.323.031-.068.053-.141.077-.211a1.248,1.248,0,0,1,.12-.335c.082-.112.048-.252.145-.366.074-.088.058-.251.089-.379a.809.809,0,0,1,.066-.142.374.374,0,0,0,.031-.077c.028-.133.053-.266.08-.4a.038.038,0,0,1,.012-.02c.1-.075.085-.181.084-.285,0-.028,0-.071.012-.083.086-.066.056-.158.063-.242a.316.316,0,0,1,.026-.142.786.786,0,0,0,.074-.455.586.586,0,0,1,.025-.129.965.965,0,0,0,.048-.158,1.934,1.934,0,0,1,.037-.491,1.594,1.594,0,0,0,.066-.483c.007-.116-.066-.154-.154-.185a3.186,3.186,0,0,1-.325-.119c-.166-.079-.326-.17-.489-.257-.091-.049-.182-.1-.271-.149-.109-.065-.214-.137-.325-.2-.166-.1-.342-.176-.5-.28s-.287-.217-.429-.328c-.036-.028-.066-.064-.1-.09-.147-.1-.3-.2-.443-.307-.1-.079-.181-.184-.277-.27-.154-.138-.316-.268-.469-.407a1.538,1.538,0,0,1-.132-.171,1.2,1.2,0,0,1-.3-.408c-.039-.127-.173-.226-.265-.336-.056-.067-.117-.131-.17-.2s-.076-.125-.116-.187a.721.721,0,0,1-.059-.077c-.069-.151-.135-.3-.2-.455-.024-.054-.032-.133-.072-.157-.084-.05-.079-.116-.081-.191a.155.155,0,0,0-.026-.079c-.074-.111-.036-.267-.146-.365-.012-.011,0-.048,0-.073s0-.061-.012-.071c-.083-.061-.061-.148-.062-.229,0-.138,0-.276,0-.413,0-.292-.012-.585,0-.876a3.073,3.073,0,0,1,.058-.855,5.847,5.847,0,0,0,.08-.64,2.115,2.115,0,0,0,.111-.706c0-.019.023-.041.03-.064.024-.067.048-.135.066-.2a1.161,1.161,0,0,1,.014-.122c.049-.125.107-.246.157-.371.01-.026,0-.059.006-.087a2.924,2.924,0,0,1,.089-.346c.042-.114.117-.216.156-.33a2.234,2.234,0,0,1,.271-.633.954.954,0,0,0,.076-.148c.037-.075,0-.137-.088-.143a.391.391,0,0,1-.1-.009c-.126-.044-.248-.1-.376-.138-.2-.055-.408-.1-.607-.172-.231-.084-.474-.136-.713-.2-.051-.013-.11,0-.159-.019-.115-.04-.223-.1-.34-.135a1.786,1.786,0,0,1-.623-.276,1.082,1.082,0,0,1-.313-.573c-.016-.043.059-.113.062-.173a.648.648,0,0,1,.318-.484H23c-.02,0-.05,0-.059.011-.064.087-.156.059-.241.064s-.173.009-.258.023c-.135.021-.268.06-.4.075-.215.025-.444-.057-.637.1l.852,1.183c.33,0,.667,0,1,0,.109,0,.228-.032.306.085.007.01.03.013.045.014a.769.769,0,0,1,.548.31.625.625,0,0,1,.178.527,1.006,1.006,0,0,1-.071.187,1.916,1.916,0,0,1-.117.35c-.113.195-.253.374-.378.562s-.283.342-.209.6c.041.141.055.291.084.436,0,.014.023.024.03.038a.659.659,0,0,1,.062.143c.031.153.054.308.081.462a.08.08,0,0,0,.021.043c.09.079.077.184.076.287,0,.029-.006.072.01.084.087.066.06.156.065.241a.467.467,0,0,0,.016.1,5.006,5.006,0,0,1,.154.577,4.289,4.289,0,0,0,.09.7c.088.285-.046.613.09.908q.013,1.006.025,2.011C24.362,31.606,24.359,31.888,24.359,32.164Zm-2.49-7.712-.049-.008c-.195.228-.391.455-.583.686-.135.162-.27.325-.394.5-.1.146-.186.308-.288.455-.089.129-.194.247-.291.371a1.661,1.661,0,0,0-.3.4,2.31,2.31,0,0,1-.308.457c-.113.177-.214.363-.326.541s-.185.346-.285.515c-.066.112-.149.215-.224.322a1.593,1.593,0,0,0-.1.152c-.074.137-.143.277-.216.414-.043.082-.093.16-.134.243-.073.15-.139.3-.213.453-.041.083-.1.158-.137.242-.073.15-.138.3-.208.455-.047.1-.1.2-.145.3a.706.706,0,0,1-.1.213c-.091.086-.09.206-.145.3a3.826,3.826,0,0,0-.158.359c-.041.094-.081.189-.121.283s-.076.184-.115.277c-.045.109-.091.218-.136.328s-.082.207-.126.309-.106.215-.145.327-.052.224-.082.336c-.007.025-.035.044-.053.066s-.04.034-.041.052a1.121,1.121,0,0,1-.168.509,1.279,1.279,0,0,0-.086.37,1.244,1.244,0,0,0-.106.493c0,.005-.012.012-.014.019a.925.925,0,0,0-.053.168c-.026.205-.148.393-.106.61-.116.1-.057.232-.07.35a1.486,1.486,0,0,1-.017.2,2.257,2.257,0,0,0-.086.715c.012.175,0,.351,0,.526a1.424,1.424,0,0,0,.07.643c.081.158,0,.349.093.523.049.093.011.238.086.345a.33.33,0,0,1,.025.081,1.993,1.993,0,0,0,.1.278,4.633,4.633,0,0,1,.239.407.863.863,0,0,0,.3.364,3.144,3.144,0,0,0,.341.195.97.97,0,0,0,.487.149,1.769,1.769,0,0,0,.529-.057A3.084,3.084,0,0,0,18.6,40.5c.215-.116.416-.26.629-.382.125-.071.187-.2.337-.265s.26-.235.382-.354c-.121-.057-.233-.106-.341-.162-.079-.041-.149-.12-.23-.129-.11-.013-.156-.084-.218-.147a1.061,1.061,0,0,1-.312-.4c-.042-.131-.172-.23-.145-.389a.118.118,0,0,0-.011-.047c-.021-.072-.047-.142-.062-.215-.022-.107-.032-.217-.053-.325-.01-.05-.046-.1-.047-.145,0-.455,0-.91,0-1.365,0-.033-.008-.083.009-.1.1-.073.06-.174.066-.266.01-.165.017-.331.026-.5,0-.012,0-.03.006-.036.116-.1.052-.233.069-.351.009-.06.016-.119.029-.178s.038-.1.044-.147c.015-.118-.012-.259.043-.351a.571.571,0,0,0,.059-.269,1.115,1.115,0,0,1,.027-.169c.047-.185.1-.369.147-.555.036-.149.062-.3.089-.45.01-.053-.007-.123.021-.157.121-.145.066-.332.129-.495a.978.978,0,0,0,.114-.54c0-.012.015-.028.02-.043q.077-.244.153-.488c.02-.065.035-.131.055-.2.039-.13.08-.259.121-.388.021-.067.045-.134.065-.2.037-.122.073-.244.11-.366.015-.049.033-.1.052-.144s.033-.074.048-.111c.044-.114.088-.228.129-.342s.081-.233.122-.35c.018-.052.038-.1.057-.154s.028-.084.043-.126c.033-.1.064-.2.1-.291.047-.122.1-.242.149-.364s.091-.237.141-.353c.041-.1.092-.186.133-.281.07-.159.133-.322.2-.481.044-.1.1-.191.146-.288.07-.146.138-.294.205-.441.026-.058.045-.119.076-.174.044-.08.1-.155.144-.235a2.7,2.7,0,0,1,.306-.548.84.84,0,0,0,.118-.232c.006-.015-.015-.043-.026-.064a.675.675,0,0,1-.044-.072C21.977,24.741,21.923,24.6,21.87,24.452Zm8.9,9.05.046-.028c0-.3,0-.6,0-.9-.006-.6-.016-1.207-.025-1.81,0-.025.006-.062-.007-.072-.1-.08-.064-.19-.066-.289,0-.154,0-.309,0-.463,0-.129.037-.27-.091-.37-.009-.008-.007-.031-.008-.048a1.541,1.541,0,0,0-.063-.517c-.066-.153,0-.343-.1-.52-.068-.117-.016-.294-.077-.447-.04-.1-.022-.23-.085-.337a.383.383,0,0,1-.026-.118c-.029-.153-.056-.307-.089-.459-.006-.03-.037-.054-.054-.081a.214.214,0,0,1-.032-.064c-.027-.133-.051-.267-.078-.4,0-.018-.021-.034-.03-.052a1.058,1.058,0,0,1-.067-.154c-.03-.107-.052-.216-.079-.324,0-.012-.025-.02-.031-.032-.024-.048-.046-.1-.066-.148-.038-.093-.072-.187-.113-.279s-.1-.181-.136-.275c-.048-.112-.084-.229-.134-.34-.068-.151-.144-.3-.219-.447-.047-.092-.095-.183-.148-.271-.139-.231-.4-.234-.615-.31a.859.859,0,0,0-.467-.112c-.018,0-.044-.048-.066-.048-.059,0-.148-.008-.172.025a2.633,2.633,0,0,0-.17.327c-.024.046-.059.087-.079.135-.04.1-.068.2-.112.29s-.1.18-.149.271a.413.413,0,0,0-.023.092,1,1,0,0,1-.027.1c-.048.133-.1.265-.147.4,0,0,0,.008,0,.012-.034.164-.067.329-.1.493,0,.015-.015.029-.02.044a1.925,1.925,0,0,0-.054.2c-.029.166-.053.333-.08.5,0,.008-.009.014-.011.021-.029.1-.059.206-.085.31-.01.039-.009.08-.019.119a.88.88,0,0,0-.054.192c0,.567-.009,1.135,0,1.7a2.694,2.694,0,0,0,.086.458s0,.007.006.011c.051.12.1.239.152.36.064.158.115.323.192.474a3.1,3.1,0,0,0,.263.406c.168.231.338.461.519.682.115.14.25.264.378.393a1.061,1.061,0,0,0,.247.225,1.094,1.094,0,0,1,.343.294.481.481,0,0,0,.12.083c.124.074.252.142.372.221s.2.184.31.217c.167.048.265.191.425.245a2.7,2.7,0,0,1,.358.19c.035.018.081.012.116.03C30.545,33.373,30.659,33.438,30.773,33.5ZM28.816,22.056c.026.025.057.052.085.081a4.573,4.573,0,0,1,.327.335c.139.172.262.358.393.537a.08.08,0,0,0,.027.025.722.722,0,0,0,.309.092c.15.006.29.1.449.075.008,0,.018.018.029.022a1.248,1.248,0,0,0,.214.07c.211.033.424.055.636.084a.551.551,0,0,1,.09.035.916.916,0,0,0,.179.055c.094.011.214-.026.28.019a.455.455,0,0,0,.257.058,1.767,1.767,0,0,1,.244.028c.049.011.09.064.138.069a5.174,5.174,0,0,1,.778.064,4.545,4.545,0,0,0,.893.041.647.647,0,0,1,.208.051,1.942,1.942,0,0,0,.684-.024.287.287,0,0,1,.078-.028,6.07,6.07,0,0,0,.974-.091c.146-.056.318-.025.483-.092a4.1,4.1,0,0,0,.467-.168.923.923,0,0,1,.156-.093.827.827,0,0,0,.361-.3.9.9,0,0,0,.11-.209.545.545,0,0,0,.062-.142c.014-.083-.017-.171.064-.242a.139.139,0,0,0,0-.137c-.076-.069-.044-.153-.061-.231-.032-.139-.079-.275-.122-.411a.531.531,0,0,0-.061-.154c-.1-.134-.205-.261-.308-.392a3.686,3.686,0,0,0-.247-.317,2.666,2.666,0,0,0-.371-.322,5.972,5.972,0,0,0-.844-.544c-.179-.084-.357-.235-.586-.191-.013,0-.029-.014-.044-.018l-.535-.155a.048.048,0,0,0-.012,0c-.251,0-.5-.011-.753,0a1.869,1.869,0,0,0-.837.087c-.12.063-.289,0-.437.077-.09.047-.228-.013-.313.1-.014.019-.072,0-.109.009s-.09.029-.135.043-.077.02-.115.032c-.132.042-.264.085-.4.129a.739.739,0,0,0-.154.06c-.132.081-.255.175-.39.251-.081.046-.185.054-.265.1-.14.084-.269.187-.41.287l.058.035c.235.13.453.271.4.595a.62.62,0,0,0,0,.1c0,.116-.142.346-.251.364a1.066,1.066,0,0,1-.729-.056,1.879,1.879,0,0,0-.289-.113c-.062-.022-.126-.038-.191-.057Zm-6.193,4.58c-.011.021-.029.048-.041.078-.035.084-.064.171-.1.252s-.1.156-.144.239c-.058.112-.108.227-.158.343-.043.1-.081.2-.119.3s-.063.179-.1.267c-.047.112-.1.223-.152.333a.913.913,0,0,0-.1.19.863.863,0,0,1-.171.427c-.011.013,0,.041-.009.06-.047.13-.1.26-.144.391-.037.1-.07.21-.106.314-.018.052-.04.1-.061.152a.558.558,0,0,0-.038.087c-.029.124-.053.249-.081.374,0,.011-.016.019-.021.03-.051.124-.1.247-.149.372-.027.07-.051.14-.073.212a1.093,1.093,0,0,0-.027.118c-.027.141-.053.283-.081.424a.033.033,0,0,1-.014.019c-.1.063-.08.163-.081.258a.232.232,0,0,1-.012.085c-.051.124-.106.246-.158.37a.286.286,0,0,0-.005.062q-.038.25-.078.5a.037.037,0,0,1-.011.021c-.159.126-.058.331-.15.49-.06.1,0,.274-.1.393-.013.016-.008.048-.011.072-.025.229-.05.458-.077.688,0,.022-.026.04-.035.062a.7.7,0,0,0-.06.18c-.01.12.04.266-.013.357-.107.186-.037.372-.066.555-.012.071-.041.138-.059.208a.823.823,0,0,0-.038.19c0,.509,0,1.018,0,1.527a.343.343,0,0,0,.02.119c.049.127.1.251.153.377a.341.341,0,0,0,.34.159c.047-.022.087-.069.135-.077a.879.879,0,0,0,.506-.317,3.5,3.5,0,0,0,.6-.683,3.487,3.487,0,0,1,.3-.406,1.277,1.277,0,0,0,.126-.208c.038-.082.057-.173.093-.257.084-.2.172-.39.26-.584a1.135,1.135,0,0,0,.072-.137c.04-.136.067-.277.108-.412.048-.159.109-.313.158-.472.016-.05-.006-.12.021-.157.108-.144.057-.327.135-.48.043-.086-.008-.229.045-.3.113-.145.036-.32.125-.474s.044-.349.1-.53c.066-.231,0-.49.083-.736a1.322,1.322,0,0,0,.031-.443c0-.583-.015-1.165-.024-1.748,0-.017,0-.041-.006-.048-.11-.091-.064-.215-.067-.326-.006-.187,0-.375,0-.563,0-.033.006-.081-.012-.1-.084-.067-.061-.157-.062-.242,0-.1,0-.209,0-.313a2.589,2.589,0,0,0-.04-.3c-.013-.069-.045-.135-.058-.2-.036-.189-.066-.379-.1-.569a.434.434,0,0,0-.027-.067A.455.455,0,0,1,22.734,27C22.732,26.871,22.749,26.738,22.623,26.636Zm13.029,7.879H36.3c.033,0,.08.013.1,0,.124-.118.276-.055.414-.072a.835.835,0,0,0,.153-.027c.151-.047.3-.1.451-.148.055-.019.109-.044.163-.064a.354.354,0,0,1,.113-.034.956.956,0,0,0,.538-.176,1.194,1.194,0,0,0,.409-.32.566.566,0,0,1,.351-.287c.017,0,.035-.037.038-.058a2.6,2.6,0,0,0,.026-.27,1.165,1.165,0,0,0-.169-.682c-.037-.058-.069-.119-.1-.179-.1-.176-.179-.359-.289-.525s-.255-.324-.38-.487c-.038-.05-.051-.122-.094-.164a5.34,5.34,0,0,0-.8-.735c-.077-.05-.13-.176-.2-.184-.168-.018-.245-.161-.372-.23a1.847,1.847,0,0,0-.7-.325,1.792,1.792,0,0,0-.111.337,5.285,5.285,0,0,1-.067.627,4.14,4.14,0,0,0-.039.818.517.517,0,0,1-.022.118.727.727,0,0,0-.05.169c0,.938,0,1.877,0,2.815ZM15.781,20.5a16.053,16.053,0,0,0,2.595.044c-.073-.019-.129-.035-.187-.049l-.329-.075c-.016,0-.041,0-.048-.007-.083-.1-.2-.063-.3-.067-.125,0-.251.006-.375,0-.079-.006-.155-.043-.234-.053a.824.824,0,0,0-.213,0c-.047.006-.089.043-.136.048-.159.018-.324-.031-.477.073A1.027,1.027,0,0,1,15.781,20.5Zm11.346,1.832a2.427,2.427,0,0,0-1.852-.5.162.162,0,0,0,.081.06c.132.029.266.052.4.078a.063.063,0,0,1,.033.014c.128.136.318.082.47.154a1.2,1.2,0,0,0,.4.128c.06.006.137.049.214.054.036,0,.071.022.106.023A1.192,1.192,0,0,0,27.127,22.327Zm.719-1.03.062-.07-.32-.1-.009.026Z" transform="translate(-9.861 -14.355)" fill="#fff"/>
      <path id="Path_19" data-name="Path 19" d="M33.032,89.222c.045.112.09.224.134.337.017.044.032.089.05.132.006.015.022.027.026.042.034.127.066.254.1.381.017.062.035.123.054.184.014.046.03.092.046.138s.041.11.056.167.009.089.02.132c.018.068.042.135.064.2.007.019.024.035.028.055.029.15.054.3.083.449a1.211,1.211,0,0,0,.045.151.831.831,0,0,1,.038.089c.032.156.061.314.093.47a.59.59,0,0,0,.038.087c.021.056.043.112.061.168s.041.135.06.2a.266.266,0,0,1,.015.071.4.4,0,0,0,.081.323.062.062,0,0,1,.017.032c.027.15.051.3.079.449a.249.249,0,0,0,.035.075c.017.028.047.052.054.082.032.14.055.282.087.422.017.07.054.135.072.2.038.147.066.3.1.443a.987.987,0,0,0,.064.155c.007.014.026.025.029.039.028.129.053.258.081.386a.7.7,0,0,0,.038.1c.02.052.038.106.063.155.066.131.046.29.148.411a.505.505,0,0,1,.1.2,2.114,2.114,0,0,0,.352.668c.092.139.2.266.3.4a1.41,1.41,0,0,0,.08.122,2.432,2.432,0,0,0,.18.168c.017.015.046.017.063.033a1.271,1.271,0,0,0,.477.261.952.952,0,0,0,.454.048.865.865,0,0,0,.413-.135c.105-.079.229-.132.336-.21a1.09,1.09,0,0,0,.136-.164,4.7,4.7,0,0,0,.339-.37c.154-.213.295-.435.427-.662.067-.115.1-.25.155-.37.075-.157.161-.309.242-.463.011-.021.031-.043.03-.064a.682.682,0,0,1,.156-.4c0-.007.014-.012.016-.019.036-.131.067-.263.107-.393s.095-.267.138-.4c.015-.046.009-.1.024-.145.051-.158.111-.313.156-.472.021-.074.006-.158.022-.233.033-.148.063-.3.1-.444a3.469,3.469,0,0,1,.1-.543c.073-.167.009-.335.069-.477a2.293,2.293,0,0,0,.075-.652c.011-.09.018-.18.027-.275.008,0,.025-.012.03-.008.144.115.348.015.49.136.016.014.047.011.072.014.184.016.349.136.544.1.023,0,.051.018.076.031a.443.443,0,0,0,.118.06c.224.031.45.051.674.085.113.017.223.056.335.083.047.011.1.017.155.028,0,.106,0,.214,0,.321s-.034.2.065.278c.015.012.008.056.009.084q0,3.231,0,6.461c0,.024,0,.048,0,.078-.183-.083-.355-.173-.536-.239-.14-.051-.292-.069-.437-.11s-.309-.108-.467-.141c-.132-.028-.271-.019-.405-.034a.936.936,0,0,1-.169-.051.293.293,0,0,0-.068-.021,5.058,5.058,0,0,1-.558-.029,16.473,16.473,0,0,0-2.458-.069c-.826-.014-1.653,0-2.479,0a.6.6,0,0,1-.135-.041.617.617,0,0,0-.152-.031l-6.886,0a1.788,1.788,0,0,1-.58-.034c-.34-.121-.69.009-1.013-.079a5.614,5.614,0,0,1-.72-.1,1.614,1.614,0,0,0-.545-.066c-.1-.009-.206.021-.306-.062-.05-.042-.161-.011-.244-.013a.7.7,0,0,1-.376-.083c-.081-.048-.211-.008-.319-.019a1.265,1.265,0,0,1-.193-.055.3.3,0,0,0-.095-.017.709.709,0,0,1-.381-.074.122.122,0,0,1-.081-.129q0-.745,0-1.49a.521.521,0,0,0-.045-.146.3.3,0,0,1-.027-.078c0-.116,0-.233,0-.355.018.01.037.014.039.023.038.13.064.264.112.391a4.489,4.489,0,0,0,.2.445,4.047,4.047,0,0,0,.23.4c.059.088.156.153.208.245.123.217.364.3.519.48.061.071.18.093.273.138.072.035.14.077.214.106.135.052.273.1.412.142a.977.977,0,0,0,.172.016,3.662,3.662,0,0,0,.509.056,4.336,4.336,0,0,0,.705-.077,2.894,2.894,0,0,0,.419-.161c.093-.034.193-.049.285-.086a2.269,2.269,0,0,0,.332-.161c.176-.107.35-.219.516-.342.185-.138.348-.308.542-.432a4.3,4.3,0,0,0,.679-.615,5.3,5.3,0,0,0,.351-.421c.146-.179.3-.351.435-.54.143-.2.262-.424.393-.637.006-.011.018-.017.025-.028.07-.1.141-.208.209-.314.1-.155.2-.309.3-.468.061-.1.106-.214.162-.319.039-.074.087-.144.125-.218.077-.152.149-.307.224-.46.016-.032.036-.062.054-.092.066-.109.133-.217.2-.327.083-.145.163-.291.242-.437a1.517,1.517,0,0,0,.091-.193c.043-.115.077-.234.118-.35a1.563,1.563,0,0,1,.076-.174c.043-.085.09-.167.133-.252a.691.691,0,0,0,.04-.111c.014-.046.02-.1.039-.14.043-.106.089-.211.138-.314.081-.168.168-.334.248-.5.028-.059.046-.124.069-.185Z" transform="translate(-18.017 -70.046)" fill="#d7b285"/>
      <path id="Path_20" data-name="Path 20" d="M56.637,42.873c0-.276,0-.557,0-.839q-.01-1.006-.024-2.011c-.137-.3,0-.624-.09-.908a4.29,4.29,0,0,1-.09-.7,5.007,5.007,0,0,0-.154-.577.467.467,0,0,1-.016-.1c-.005-.084.022-.175-.065-.241-.016-.012-.01-.055-.01-.084,0-.1.015-.208-.076-.287a.08.08,0,0,1-.021-.043c-.027-.154-.05-.309-.081-.462a.659.659,0,0,0-.062-.143c-.007-.014-.027-.024-.03-.038-.029-.145-.043-.294-.084-.436-.074-.254.089-.416.209-.6s.265-.367.378-.562a1.916,1.916,0,0,0,.117-.35,1.006,1.006,0,0,0,.071-.187.625.625,0,0,0-.178-.527.769.769,0,0,0-.548-.31c-.015,0-.038,0-.045-.014-.078-.117-.2-.085-.306-.085-.337,0-.675,0-1,0L53.675,32.2c.193-.153.422-.071.637-.1.136-.015.269-.054.4-.075.085-.014.172-.017.258-.023s.176.023.241-.064c.009-.012.039-.011.059-.011h.471a.648.648,0,0,0-.318.484c0,.059-.078.13-.062.173a1.082,1.082,0,0,0,.313.573,1.786,1.786,0,0,0,.623.276c.117.031.225.094.34.135.049.017.108.006.159.019.239.063.482.115.713.2.2.072.4.117.607.172.128.035.25.093.376.138a.391.391,0,0,0,.1.009c.087.006.125.068.088.143a.954.954,0,0,1-.076.148,2.234,2.234,0,0,0-.271.633c-.039.115-.114.216-.156.33a2.924,2.924,0,0,0-.089.346c-.007.028,0,.061-.006.087-.051.124-.108.246-.157.371a1.161,1.161,0,0,0-.014.122c-.018.069-.043.136-.066.2-.008.022-.033.044-.03.064a2.115,2.115,0,0,1-.111.706,5.847,5.847,0,0,1-.08.64,3.073,3.073,0,0,0-.058.855c-.015.291,0,.584,0,.876,0,.138,0,.276,0,.413,0,.081-.02.167.062.229.014.01.01.046.012.071s-.01.062,0,.073c.111.1.072.254.146.365a.155.155,0,0,1,.026.079c0,.075,0,.142.081.191.041.024.049.1.072.157.066.152.132.3.2.455a.722.722,0,0,0,.059.077c.04.062.072.129.116.187s.113.134.17.2c.092.111.225.209.265.336a1.2,1.2,0,0,0,.3.408,1.538,1.538,0,0,0,.132.171c.153.139.315.269.469.407.1.086.176.191.277.27.141.111.3.2.443.307.037.026.067.062.1.09.142.111.279.23.429.328s.336.185.5.28c.11.063.215.135.325.2.089.052.18.1.271.149.162.087.323.178.489.257a3.186,3.186,0,0,0,.325.119c.089.031.161.069.154.185a1.594,1.594,0,0,1-.066.483,1.934,1.934,0,0,0-.037.491.965.965,0,0,1-.047.158.585.585,0,0,0-.025.129.786.786,0,0,1-.074.455.316.316,0,0,0-.026.142c-.007.084.023.175-.063.242-.016.012-.012.055-.012.083,0,.1.012.21-.084.285a.038.038,0,0,0-.012.02c-.027.133-.052.267-.08.4a.374.374,0,0,1-.031.077.809.809,0,0,0-.066.142c-.031.128-.014.291-.089.379-.1.114-.063.254-.145.366a1.248,1.248,0,0,0-.12.335c-.024.071-.047.143-.077.211-.049.109-.107.214-.156.323-.067.149-.128.3-.195.449a.69.69,0,0,1-.1.187c-.152.167-.227.393-.417.529a.2.2,0,0,1-.288-.035,1.768,1.768,0,0,1-.322-.549,3.136,3.136,0,0,0-.217-.438c0-.007-.014-.011-.017-.018-.037-.13-.07-.262-.112-.39s-.1-.265-.145-.4-.07-.245-.1-.367c-.016-.058-.03-.117-.047-.175-.009-.03-.031-.058-.037-.089-.032-.148-.06-.3-.092-.446a.333.333,0,0,0-.031-.077.532.532,0,0,1-.054-.107c-.033-.148-.056-.3-.09-.447a1.928,1.928,0,0,1-.073-.213c-.019-.176-.138-.333-.1-.519a.055.055,0,0,0-.013-.045c-.116-.078-.077-.2-.089-.306a.8.8,0,0,0-.054-.167s-.008-.006-.008-.009c-.037-.143-.079-.285-.109-.43s-.04-.311-.081-.461-.11-.3-.164-.445a.286.286,0,0,1-.006-.1c0-.083.01-.167-.069-.226a.076.076,0,0,1-.023-.043c-.029-.133-.054-.266-.086-.4a.882.882,0,0,0-.059-.145c-.011-.025-.038-.049-.038-.074a.844.844,0,0,0-.148-.4c-.051-.1-.067-.216-.126-.309a3.627,3.627,0,0,0-.3-.377,1.562,1.562,0,0,0-.536-.427.875.875,0,0,0-.351-.043C56.929,42.847,56.774,42.865,56.637,42.873Z" transform="translate(-42.139 -25.065)" fill="#d7b285"/>
      <path id="Path_21" data-name="Path 21" d="M33.48,46.946c.054.144.107.289.162.433a.676.676,0,0,0,.044.072c.011.021.032.049.026.064a.84.84,0,0,1-.118.232,2.7,2.7,0,0,0-.306.548c-.044.081-.1.155-.144.235-.031.055-.049.116-.076.174-.068.147-.135.295-.205.441-.047.1-.1.19-.146.288-.071.159-.135.321-.2.481-.041.095-.092.186-.133.281-.05.116-.094.235-.141.353s-.1.242-.149.364c-.037.1-.068.194-.1.291-.014.042-.028.084-.043.126s-.039.1-.057.154c-.041.116-.08.234-.122.35s-.085.228-.129.342c-.014.038-.033.074-.048.111s-.037.1-.052.144c-.038.122-.073.244-.11.366-.021.067-.044.134-.065.2-.041.129-.081.259-.121.388-.02.065-.035.131-.055.2q-.075.244-.153.488c0,.015-.023.03-.02.043a.978.978,0,0,1-.114.54c-.063.163-.008.349-.129.495-.028.034-.011.1-.021.157-.028.15-.054.3-.089.45-.044.186-.1.369-.147.555a1.115,1.115,0,0,0-.027.169.571.571,0,0,1-.059.269c-.055.093-.028.233-.043.351-.006.05-.033.1-.044.147s-.021.119-.029.178c-.017.118.047.252-.069.351-.007.006-.005.024-.006.036-.009.165-.016.331-.026.5-.005.092.03.192-.066.266-.017.014-.009.064-.009.1,0,.455,0,.91,0,1.365,0,.048.037.1.047.145.021.107.031.217.053.325.015.073.041.143.062.215a.118.118,0,0,1,.011.047c-.027.159.1.258.145.389a1.061,1.061,0,0,0,.312.4c.061.063.108.134.218.147.08.009.151.088.23.129.108.056.22.1.341.162-.122.119-.23.292-.382.354s-.213.193-.337.265c-.213.122-.413.266-.629.382a3.084,3.084,0,0,1-.573.192,1.769,1.769,0,0,1-.529.057.97.97,0,0,1-.487-.149,3.144,3.144,0,0,1-.341-.195.864.864,0,0,1-.3-.364,4.633,4.633,0,0,0-.239-.407,1.994,1.994,0,0,1-.1-.278.33.33,0,0,0-.025-.081c-.076-.107-.037-.252-.086-.345-.092-.174-.012-.365-.093-.523a1.424,1.424,0,0,1-.07-.643c-.007-.175.009-.351,0-.526a2.257,2.257,0,0,1,.086-.715,1.486,1.486,0,0,0,.017-.2c.013-.119-.046-.252.07-.35-.041-.216.08-.4.106-.61a.925.925,0,0,1,.053-.168c0-.007.015-.014.014-.019a1.244,1.244,0,0,1,.106-.493,1.279,1.279,0,0,1,.086-.37,1.121,1.121,0,0,0,.168-.509c0-.018.026-.035.041-.052s.047-.041.053-.066c.03-.111.045-.227.082-.336s.1-.218.145-.327.083-.207.126-.309.091-.218.136-.328c.038-.092.076-.185.115-.277s.08-.189.121-.283a3.826,3.826,0,0,1,.158-.359c.055-.1.054-.218.145-.3a.706.706,0,0,0,.1-.213c.047-.1.1-.2.145-.3.07-.152.136-.305.208-.455.04-.083.1-.159.137-.242.074-.15.139-.3.213-.453.041-.083.091-.161.134-.243.073-.138.142-.277.216-.414a1.592,1.592,0,0,1,.1-.152c.074-.108.157-.21.224-.322.1-.169.18-.349.285-.515s.213-.364.326-.541a2.31,2.31,0,0,0,.308-.457,1.661,1.661,0,0,1,.3-.4c.1-.124.2-.242.291-.371.1-.147.184-.31.288-.455.123-.172.259-.334.394-.5.192-.231.389-.458.583-.686Z" transform="translate(-21.472 -36.85)" fill="#d7b285"/>
      <path id="Path_22" data-name="Path 22" d="M81.82,53.614c-.115-.063-.228-.129-.344-.188-.035-.018-.081-.012-.116-.03a2.7,2.7,0,0,0-.358-.19c-.16-.054-.258-.2-.425-.245-.115-.033-.2-.148-.31-.217s-.249-.147-.372-.221a.481.481,0,0,1-.12-.083,1.094,1.094,0,0,0-.343-.294,1.061,1.061,0,0,1-.247-.225c-.128-.129-.263-.253-.378-.393-.181-.221-.351-.451-.519-.682a3.1,3.1,0,0,1-.263-.406c-.077-.151-.128-.316-.192-.474-.049-.121-.1-.24-.152-.36,0,0-.005-.007-.006-.011a2.7,2.7,0,0,1-.086-.458c-.01-.567-.006-1.135,0-1.7a.88.88,0,0,1,.054-.192c.01-.039.009-.081.019-.119.027-.1.057-.207.085-.31,0-.008.01-.014.011-.021.027-.167.051-.333.08-.5a1.929,1.929,0,0,1,.054-.2c0-.015.017-.029.02-.044.034-.164.067-.329.1-.493,0,0,0-.009,0-.012.049-.132.1-.264.147-.4a1,1,0,0,0,.027-.1.413.413,0,0,1,.023-.092c.048-.091.106-.178.149-.271s.072-.195.112-.29c.02-.048.055-.089.079-.135a2.632,2.632,0,0,1,.17-.327c.024-.033.113-.026.172-.025.023,0,.049.052.066.048a.859.859,0,0,1,.467.112c.216.076.476.079.615.31.053.088.1.179.148.271.075.148.151.3.219.447.05.111.086.228.134.34.041.093.094.182.136.275s.075.186.113.279c.021.05.043.1.066.148.006.013.028.02.031.032.028.108.049.217.079.324a1.058,1.058,0,0,0,.067.154c.008.018.026.034.03.052.027.133.051.266.078.4a.214.214,0,0,0,.032.064c.017.028.047.052.054.081.033.152.06.306.089.459a.383.383,0,0,0,.026.118c.063.107.045.237.085.337.061.153.009.33.077.447.1.177.033.367.1.52a1.541,1.541,0,0,1,.063.517c0,.016,0,.04.008.048.127.1.088.241.091.37,0,.154,0,.309,0,.463,0,.1-.035.21.066.289.013.011.007.048.007.072.009.6.018,1.207.025,1.81,0,.3,0,.6,0,.9Z" transform="translate(-60.908 -34.468)" fill="#d7b285"/>
      <path id="Path_23" data-name="Path 23" d="M88.192,26.622l.469-.469c.065.019.129.035.191.057a1.88,1.88,0,0,1,.289.113,1.066,1.066,0,0,0,.729.056c.109-.018.25-.248.251-.364a.62.62,0,0,1,0-.1c.052-.324-.166-.465-.4-.595l-.058-.035c.142-.1.271-.2.41-.287.08-.048.183-.056.265-.1.135-.075.258-.17.39-.251a.738.738,0,0,1,.154-.06c.131-.044.263-.087.4-.129.038-.012.077-.02.115-.032s.089-.033.135-.043.094.01.109-.009c.085-.114.223-.054.313-.1.147-.076.317-.014.437-.077a1.869,1.869,0,0,1,.837-.087c.25-.014.5,0,.753,0a.048.048,0,0,1,.012,0l.535.155c.015,0,.031.02.044.018.229-.044.407.107.586.191a5.972,5.972,0,0,1,.844.544,2.667,2.667,0,0,1,.371.322,3.685,3.685,0,0,1,.247.317c.1.131.21.258.308.392a.531.531,0,0,1,.061.154c.043.136.09.272.122.411.018.077-.014.162.061.231a.139.139,0,0,1,0,.137c-.081.072-.05.16-.064.242a.545.545,0,0,1-.062.142.9.9,0,0,1-.11.209.827.827,0,0,1-.361.3.922.922,0,0,0-.156.093,4.1,4.1,0,0,1-.467.168c-.165.067-.338.035-.483.092a6.07,6.07,0,0,1-.974.091.287.287,0,0,0-.078.028,1.942,1.942,0,0,1-.684.024.647.647,0,0,0-.208-.051,4.546,4.546,0,0,1-.893-.041,5.174,5.174,0,0,0-.778-.064c-.048,0-.089-.058-.138-.069a1.766,1.766,0,0,0-.244-.028.455.455,0,0,1-.257-.058c-.066-.045-.186-.008-.28-.019a.917.917,0,0,1-.179-.055.551.551,0,0,0-.09-.035c-.212-.029-.425-.052-.636-.084a1.248,1.248,0,0,1-.214-.07c-.011,0-.02-.023-.029-.022-.159.025-.3-.069-.449-.075a.722.722,0,0,1-.309-.092A.08.08,0,0,1,89,27.576c-.13-.18-.254-.365-.393-.537a4.573,4.573,0,0,0-.327-.335C88.249,26.674,88.218,26.647,88.192,26.622Z" transform="translate(-69.238 -18.921)" fill="#d7b285"/>
      <path id="Path_24" data-name="Path 24" d="M48.981,57.139c.126.1.109.235.111.366a.455.455,0,0,0,.047.137.433.433,0,0,1,.027.067c.034.189.064.38.1.569.013.069.045.135.058.2a2.589,2.589,0,0,1,.04.3c.006.1,0,.209,0,.313,0,.084-.022.175.062.242.018.014.012.063.012.1,0,.188,0,.376,0,.563,0,.111-.043.235.067.326.009.008.006.032.006.048.009.582.019,1.165.024,1.748a1.322,1.322,0,0,1-.031.443c-.087.246-.016.505-.083.736-.052.181-.01.381-.1.53s-.012.329-.125.474c-.054.069,0,.212-.045.3-.078.153-.027.337-.135.48-.028.037-.006.107-.021.157-.049.158-.11.313-.158.472-.041.136-.068.276-.108.412a1.136,1.136,0,0,1-.072.137c-.088.194-.176.388-.26.584-.036.083-.055.174-.093.257a1.277,1.277,0,0,1-.126.208,3.486,3.486,0,0,0-.3.406,3.5,3.5,0,0,1-.6.683.879.879,0,0,1-.506.317c-.048.008-.088.055-.135.077a.341.341,0,0,1-.34-.159c-.049-.127-.1-.251-.153-.377a.343.343,0,0,1-.02-.119c0-.509,0-1.018,0-1.527a.823.823,0,0,1,.038-.19c.018-.07.047-.137.059-.208.029-.182-.041-.369.066-.555.052-.091,0-.237.013-.357a.7.7,0,0,1,.06-.18c.009-.022.032-.041.035-.062.028-.229.052-.458.077-.688,0-.024,0-.056.011-.072.1-.119.042-.289.1-.393.092-.159-.01-.364.15-.49a.037.037,0,0,0,.011-.021q.039-.25.078-.5a.286.286,0,0,1,.005-.062c.052-.124.107-.246.158-.37a.232.232,0,0,0,.012-.085c0-.094-.019-.194.081-.258a.033.033,0,0,0,.014-.019c.027-.141.054-.283.081-.424a1.093,1.093,0,0,1,.027-.118c.023-.071.046-.142.073-.212.048-.124.1-.248.149-.372,0-.011.018-.019.021-.03.028-.125.052-.25.081-.374a.558.558,0,0,1,.038-.087c.021-.051.043-.1.061-.152.037-.1.069-.21.106-.314.047-.131.1-.26.144-.391.007-.019,0-.047.009-.06a.863.863,0,0,0,.171-.427.913.913,0,0,1,.1-.19c.052-.11.1-.221.152-.333.037-.087.065-.178.1-.267s.077-.2.119-.3c.05-.116.1-.231.158-.343.042-.083.1-.156.144-.239s.069-.168.1-.252C48.952,57.187,48.97,57.16,48.981,57.139Z" transform="translate(-36.219 -44.859)" fill="#d7b285"/>
      <path id="Path_25" data-name="Path 25" d="M120,75.634v-.087c0-.939,0-1.877,0-2.815a.727.727,0,0,1,.05-.169.518.518,0,0,0,.022-.118,4.141,4.141,0,0,1,.039-.818A5.284,5.284,0,0,0,120.18,71a1.792,1.792,0,0,1,.111-.337,1.847,1.847,0,0,1,.7.325c.127.069.2.212.372.23.073.008.126.134.2.184a5.341,5.341,0,0,1,.8.735c.043.043.056.115.094.164.125.164.267.316.38.487s.193.349.289.525c.033.06.065.121.1.179a1.165,1.165,0,0,1,.169.682,2.593,2.593,0,0,1-.026.27c0,.021-.021.054-.038.058a.566.566,0,0,0-.351.287,1.194,1.194,0,0,1-.409.32.956.956,0,0,1-.538.176.354.354,0,0,0-.113.034c-.055.02-.108.045-.163.064-.15.051-.3.1-.451.148a.835.835,0,0,1-.153.027c-.139.017-.29-.046-.414.072-.018.017-.064,0-.1,0Z" transform="translate(-94.21 -55.475)" fill="#d7b285"/>
      <path id="Path_26" data-name="Path 26" d="M27.543,27.782a1.027,1.027,0,0,0,.294-.084c.154-.1.318-.055.477-.073.047-.005.089-.042.136-.048a.824.824,0,0,1,.213,0c.079.01.155.047.234.053.124.009.25,0,.375,0,.1,0,.219-.037.3.067.007.009.032,0,.048.007l.329.075c.058.014.114.03.187.049A16.053,16.053,0,0,1,27.543,27.782Z" transform="translate(-21.623 -21.643)" fill="#d7b285"/>
      <path id="Path_27" data-name="Path 27" d="M73.568,35.261a1.191,1.191,0,0,1-.149.015c-.035,0-.07-.02-.106-.023-.077,0-.155-.048-.214-.054a1.2,1.2,0,0,1-.4-.128c-.152-.072-.343-.018-.47-.154A.063.063,0,0,0,72.2,34.9c-.133-.026-.267-.049-.4-.078a.162.162,0,0,1-.081-.06A2.427,2.427,0,0,1,73.568,35.261Z" transform="translate(-56.303 -27.289)" fill="#d7b285"/>
      <path id="Path_28" data-name="Path 28" d="M82.7,31.686l-.267-.143.009-.026.32.1Z" transform="translate(-64.72 -24.744)" fill="#d7b285"/>
    </g>
  </g>
</svg>
