<svg xmlns="http://www.w3.org/2000/svg" width="106.889" height="27.425" viewBox="0 0 106.889 27.425">
  <g id="Schein_Logo_-_green" data-name="Schein Logo - green" transform="translate(818 -1714)">
    <path id="Path_10" data-name="Path 10" d="M30.267,118.5a16.343,16.343,0,0,0,1.818.3q.7.081,1.418.174l-.084-.531a1.664,1.664,0,0,0-.243-.7.706.706,0,0,0-.338-.265,4.326,4.326,0,0,0-1.964-.235,8.41,8.41,0,0,0-.843.114,2.218,2.218,0,0,0-.6.2.783.783,0,0,0-.269.218.473.473,0,0,0,0,.14c.031.143,0,.085.106.183A2.922,2.922,0,0,0,30.267,118.5Zm8.8,1.93a5.91,5.91,0,0,1,1.155.868,13.149,13.149,0,0,1,.109-2.325l-4.493.361q.45.089.9.193A8.718,8.718,0,0,1,39.071,120.433Zm-8.2,6.941a5.174,5.174,0,0,0,1.233.045h0l.035,0a4.729,4.729,0,0,0,.9-.174,2.937,2.937,0,0,0,.775-.34,1.313,1.313,0,0,0,.418-.414.636.636,0,0,0,.065-.416c-.017-.1-.009-.094-.1-.188a1.861,1.861,0,0,0-.753-.343,31.844,31.844,0,0,0-4.332-.746L29,124.78l.078.966a1.467,1.467,0,0,0,.246.774v0a1.828,1.828,0,0,0,.6.54A2.828,2.828,0,0,0,30.867,127.374Zm62.744-9.349a2.674,2.674,0,0,0-2.093-.394,3.656,3.656,0,0,0-1.547.467,2.814,2.814,0,0,0-.865.81,2.738,2.738,0,0,0-.3.6l5.5-.631A3.2,3.2,0,0,0,93.611,118.025Zm-.725,8.895.031,0a3.719,3.719,0,0,0,2.029-.8,2.9,2.9,0,0,0,.73-.828l6.813-.8.026-.968-13.236,1.5a2.821,2.821,0,0,0,.938,1.413h0A3.7,3.7,0,0,0,92.886,126.92ZM74.568,114.794H67.987v4.5l6.58-.566Zm-23.119,12.52a2.828,2.828,0,0,0,2.036-.839,3.513,3.513,0,0,0,.779-2.125l.011-1.737,6.507-.671.026-1.037-6.647.688-.443-1.7a2.531,2.531,0,0,0-.79-1.432c-.106-.115-.151-.186-.607-.366a2.964,2.964,0,0,0-1.612-.137,2.618,2.618,0,0,0-1.361.474,3.267,3.267,0,0,0-.945,1.13,4.753,4.753,0,0,0-.485,1.583,8.812,8.812,0,0,0-.05,1.838,8.4,8.4,0,0,0,.34,1.749,4.875,4.875,0,0,0,.7,1.452,2.87,2.87,0,0,0,1.049.893A2.709,2.709,0,0,0,51.448,127.313Zm72.043-7.6a3.284,3.284,0,0,0-4.727,0,2.814,2.814,0,0,0-.826,2.016h-.006l.184,11.233h-7.258V121.8l-1.041.082v11.076h-7.3V126.91a10.984,10.984,0,0,1-20.762-.938v6.989H74.567v-7.754l-6.58.566v7.189H60.8v-5.292A8.605,8.605,0,0,1,58.1,131.26a10.079,10.079,0,0,1-4.408,1.932l-2.6.229a12.182,12.182,0,0,1-4.382-.768,10.008,10.008,0,0,1-3.47-2.189,9.826,9.826,0,0,1-1.911-2.642,5.962,5.962,0,0,1-.72,1.734,7.14,7.14,0,0,1-2.377,2.348,9.543,9.543,0,0,1-3.2,1.194,18.374,18.374,0,0,1-3.437.322h0a17.827,17.827,0,0,1-3.5-.342,10.14,10.14,0,0,1-3.068-1.121l8.89,10.178h92.452l5.547-9.176h-7.6V121.853h-.011A2.814,2.814,0,0,0,123.492,119.712Z" transform="translate(-843.031 1599.288)" fill="#c6a877"/>
    <path id="Path_11" data-name="Path 11" d="M161.749,114.651a2.829,2.829,0,1,0,5.614,0Z" transform="translate(-901.61 1599.349)" fill="#c6a877"/>
  </g>
</svg>
